<?xml version="1.0" encoding="UTF-8"?>
<svg width="495px" height="422px" viewBox="0 0 495 422" version="1.1" xmlns="http://www.w3.org/2000/svg" xmlns:xlink="http://www.w3.org/1999/xlink">
    <!-- Generator: Sketch 54.1 (76490) - https://sketchapp.com -->
    <title>web-hosting-interface</title>
    <desc>Created with Sketch.</desc>
    <defs>
        <rect id="path-1" x="0" y="0" width="452" height="304" rx="5.28"></rect>
        <filter x="-5.5%" y="-7.6%" width="111.1%" height="116.4%" filterUnits="objectBoundingBox" id="filter-3">
            <feOffset dx="0" dy="2" in="SourceAlpha" result="shadowOffsetOuter1"></feOffset>
            <feGaussianBlur stdDeviation="8" in="shadowOffsetOuter1" result="shadowBlurOuter1"></feGaussianBlur>
            <feComposite in="shadowBlurOuter1" in2="SourceAlpha" operator="out" result="shadowBlurOuter1"></feComposite>
            <feColorMatrix values="0 0 0 0 0   0 0 0 0 0   0 0 0 0 0  0 0 0 0.5 0" type="matrix" in="shadowBlurOuter1"></feColorMatrix>
        </filter>
        <polygon id="path-4" points="0 0.458955556 30.5376724 0.458955556 30.5376724 37.1247333 0 37.1247333"></polygon>
        <polygon id="path-6" points="0.6721 0.71810873 6.8401 0.71810873 6.8401 131 0.6721 131"></polygon>
        <polygon id="path-8" points="0 0.289866667 19.7017241 0.289866667 19.7017241 23.4472 0 23.4472"></polygon>
        <polygon id="path-10" points="0.384057143 0.460466667 3.90862857 0.460466667 3.90862857 84 0.384057143 84"></polygon>
        <rect id="path-12" x="0" y="0" width="186" height="216" rx="3"></rect>
        <filter x="-5.4%" y="-3.7%" width="110.8%" height="109.3%" filterUnits="objectBoundingBox" id="filter-13">
            <feOffset dx="0" dy="2" in="SourceAlpha" result="shadowOffsetOuter1"></feOffset>
            <feGaussianBlur stdDeviation="3" in="shadowOffsetOuter1" result="shadowBlurOuter1"></feGaussianBlur>
            <feColorMatrix values="0 0 0 0 0   0 0 0 0 0   0 0 0 0 0  0 0 0 0.5 0" type="matrix" in="shadowBlurOuter1"></feColorMatrix>
        </filter>
        <filter x="-61.5%" y="-47.1%" width="223.1%" height="194.1%" filterUnits="objectBoundingBox" id="filter-14">
            <feOffset dx="0" dy="2" in="SourceAlpha" result="shadowOffsetOuter1"></feOffset>
            <feGaussianBlur stdDeviation="3" in="shadowOffsetOuter1" result="shadowBlurOuter1"></feGaussianBlur>
            <feColorMatrix values="0 0 0 0 0   0 0 0 0 0   0 0 0 0 0  0 0 0 0.5 0" type="matrix" in="shadowBlurOuter1" result="shadowMatrixOuter1"></feColorMatrix>
            <feMerge>
                <feMergeNode in="shadowMatrixOuter1"></feMergeNode>
                <feMergeNode in="SourceGraphic"></feMergeNode>
            </feMerge>
        </filter>
    </defs>
    <g id="Page-1" stroke="none" stroke-width="1" fill="none" fill-rule="evenodd">
        <g id="US-Product-Page-Web-Hosting" transform="translate(-652.000000, -445.000000)">
            <g id="masthead-visual">
                <g id="web-hosting-interface" transform="translate(668.000000, 459.000000)">
                    <g id="Website-Screen">
                        <mask id="mask-2" fill="white">
                            <use xlink:href="#path-1"></use>
                        </mask>
                        <g id="Mask">
                            <use fill="black" fill-opacity="1" filter="url(#filter-3)" xlink:href="#path-1"></use>
                            <use fill-opacity="0.8" fill="#FFFFFF" fill-rule="evenodd" xlink:href="#path-1"></use>
                        </g>
                        <g id="Cornfield" mask="url(#mask-2)">
                            <g transform="translate(174.000000, 151.000000)" id="Group-33">
                                <g transform="translate(40.000000, 0.000000)">
                                    <path d="M31.5140693,14.6592222 C31.8647186,13.2950607 32.215368,11.9319495 32.5681818,10.567788 L32.5681818,10.2275353 C32.9188312,9.54492946 32.9188312,9.20467672 33.2705628,8.52312108 C33.2705628,8.52312108 33.2705628,8.18181818 33.6212121,8.18181818 L34.3246753,6.81765674 C35.0270563,5.11324255 37.1341991,2.72727273 38.1893939,1.70441418 C39.2435065,0.681555641 39.5941558,0.681555641 41,0 C41,0 41,0.340252739 40.6482684,0.340252739 L40.2965368,0.681555641 C39.9458874,1.36311128 39.2435065,2.72727273 38.8906926,3.40882837 C38.5400433,4.43168691 37.8376623,5.79584836 37.487013,7.15895964 L37.1341991,8.86337382 C36.7835498,9.54492946 36.4318182,11.5906466 36.4318182,12.6135051 L36.4318182,12.954808 L35.3777056,21.4779291 L35.3777056,21.8181818 C35.3777056,22.8410404 35.0270563,23.522596 34.6753247,24.5454545 C34.6753247,24.8867574 34.3246753,25.2270102 34.3246753,25.5693633 C33.6212121,26.9324745 33.2705628,27.9553331 31.8647186,28.9781916 L31.1623377,29.6597473 C30.8116883,30 30.4588745,30 30.4588745,30 L28.702381,30 C28.702381,30 28.3517316,28.9781916 28.3517316,28.6368887 L28,26.9324745 C28,26.5911716 28,26.2498687 28.3517316,25.909616 L29.4058442,22.5007876 C30.1082251,20.4550705 31.1623377,16.3636364 31.5140693,14.6592222" id="Fill-1" fill="#C9C9C9"></path>
                                    <path d="M38.8915994,3.66672779 C37.4867205,4.6668378 35.7300808,7.33345557 35.0276413,8.66625105 L34.3241196,10.0000733 C34.3241196,10.0000733 34.3241196,10.3337856 33.973441,10.3337856 C33.6216801,11.0001834 33.2710016,11.3328688 33.2710016,12.0002934 L33.2710016,12.3329788 C32.9181584,13.6668011 32.5674798,15.0006234 32.2157189,16.3334189 C31.8650404,17.9999267 30.8108401,22.3330522 30.1084006,23.9995599 L29.0542003,27.3336023 C29.0542003,27.6673145 28.7024394,28 28.7024394,28 L28.7024394,27.3336023 L28,26.3334922 C28,25.99978 28,25.6660677 28.3517609,25.3333822 L29.4048789,22.0003667 C30.1084006,20.0001467 31.1615186,15.9997066 31.5143618,14.3331989 C31.8650404,12.9993766 32.2157189,11.6665811 32.5674798,10.3337856 L32.5674798,10.0000733 C32.9181584,9.3336756 32.9181584,8.99996333 33.2710016,8.33356559 C33.2710016,8.33356559 33.2710016,7.99985331 33.6216801,7.99985331 L34.3241196,6.66603102 C35.0276413,4.99952327 37.1349596,2.66661777 38.1902423,1.66650776 C39.2433603,0.666397741 39.5940388,0.666397741 41,0 C41,0 41,0.332685467 40.6493215,0.332685467 L40.2975606,0.666397741 C39.946882,1.33382229 39.2433603,2.66661777 38.8915994,3.33301551 C39.2433603,3.33301551 38.8915994,3.33301551 38.8915994,3.66672779" id="Fill-3" fill="#A0A0A0"></path>
                                    <path d="M22.666614,39.1584955 C22.0002369,37.8106355 20.9991312,36.1265888 19.9990522,34.7787289 C19.9990522,34.4425422 19.6663771,34.4425422 19.6663771,34.4425422 C19.3326751,33.769131 18.6662981,33.0946822 18.3325962,32.4212711 L17.999921,32.0850843 L16.6661401,30.7372244 C15.3323592,29.0531777 11.9994471,26.6946822 9.99928916,25.6850843 C8.00015797,24.6734112 8.00015797,24.6734112 6,24 C6.33370192,24 6.33370192,24.3372244 6.66637706,24.3372244 C7.00007898,24.3372244 7.00007898,24.6734112 7.33275413,24.6734112 C8.00015797,25.3468223 9.33393887,26.6946822 9.99928916,27.369131 C11.0003949,28.7159533 11.9994471,29.7265888 12.9995261,31.0734112 L14.333307,33.0946822 C14.6659821,33.769131 15.9997631,36.1265888 16.3324382,37.1372244 C16.3324382,37.1372244 16.3324382,37.4744488 16.6661401,37.4744488 L20.3337809,46.9053178 L20.3337809,47.2425422 C20.9991312,48.5904021 20.9991312,48.9265888 22.0002369,50.2744488 C22.3329121,50.6106355 22.3329121,50.9478599 22.666614,51.2850843 C23.9993681,52.969131 24.9994471,53.9787289 26.9996051,54.9904021 C27.333307,55.3265888 27.9986573,55.3265888 28.333386,55.6638132 C28.6660611,55.6638132 29.3324382,56 29.6661401,56 C29.999842,56 31.3325962,55.6638132 32,55.6638132 L32,53.9787289 L32,52.2946822 C32,51.9584955 31.6662981,51.6212711 31.3325962,51.2850843 L28.9997631,47.5787289 C26.3322012,45.5584955 23.666693,40.8425422 22.666614,39.1584955" id="Fill-5" fill="#C9C9C9"></path>
                                    <path d="M9.05444782,27.381123 C11.0806311,28.3920715 14.4596845,30.7502595 15.8104733,32.4348277 L17.1623028,33.7831051 L17.5005203,34.119396 C17.8376972,34.7940536 18.5141323,35.4676734 18.8513092,36.1412931 C18.8513092,36.4786219 19.1895267,36.4786219 19.1895267,36.4786219 C20.2031387,37.8258613 21.2167506,39.5114675 21.892145,40.8587069 C22.905757,42.880604 25.6083753,47.2606891 26.9602048,49.619915 L29.3256463,53.3253424 C29.6628231,53.6626712 29.6628231,54 30,54 L30,53.3253424 L30,51.6407741 C30,51.3044832 29.6628231,50.9671544 29.3256463,50.6298256 L26.9602048,46.9233602 C25.6083753,44.9025011 22.905757,40.1850872 21.892145,38.1631901 C21.2167506,36.8159507 20.2031387,35.1303445 19.1895267,33.7831051 C19.1895267,33.4457763 18.8513092,33.4457763 18.8513092,33.4457763 C18.5141323,32.7711186 17.8376972,32.0985368 17.5005203,31.4249171 L17.1623028,31.0865504 L15.8104733,29.7393109 C14.4596845,28.0537048 11.0806311,25.6955168 9.05444782,24.6845683 C7.02722391,23.6746576 7.02722391,23.6746576 5,23 C5.33821754,23 5.33821754,23.3373288 5.67643508,23.3373288 C6.01361196,23.3373288 6.01361196,23.6746576 6.3518295,23.6746576 C7.02722391,24.3482774 8.37905341,25.6955168 9.05444782,26.3691365 L9.05444782,27.381123" id="Fill-7" fill="#A0A0A0"></path>
                                    <path d="M19.4433087,117.643454 C18.7844716,115.946205 17.4657822,114.25 16.4770189,112.553795 C16.4770189,112.215182 16.148108,112.215182 16.148108,111.874477 C15.8181818,111.196205 14.8294186,110.518977 14.5005076,109.839659 C14.5005076,109.5 14.1705814,109.5 14.1705814,109.5 L12.5229811,107.803795 C10.8753807,105.768977 6.92032765,103.053795 4.61389015,101.696205 C2.3064375,100.679318 2.3064375,100.679318 0,100 C0.328910981,100.339659 0.328910981,100.339659 0.65883712,100.679318 C0.987748101,101.018977 0.987748101,101.018977 1.3186894,101.357591 C2.3064375,102.035864 3.95403788,103.732068 4.61389015,104.75 C5.93156439,106.107591 6.92032765,107.803795 7.90909091,109.161386 L9.22778031,111.535864 C9.88661743,112.553795 11.2042917,115.268977 11.5342178,116.285864 C11.5342178,116.624477 11.8631288,116.624477 11.8631288,116.965182 L16.148108,128.160341 L16.148108,128.5 C16.8069451,129.857591 17.1368712,130.535864 17.7957083,131.892409 C18.1246193,132.232068 18.4545455,132.570682 18.4545455,132.910341 C19.7722197,134.606546 21.0909091,135.964136 23.3983617,136.982068 C23.7282879,137.320682 24.716036,137.660341 25.0459621,137.660341 C25.7047992,138 26.0347254,138 26.3636364,138 C27.0234886,138 28.342178,137.660341 29,137.320682 L29,135.285864 L29,133.25 C29,132.910341 28.671089,132.570682 28.342178,132.232068 L25.3758883,127.820682 C23.7282879,125.446205 20.432072,119.678273 19.4433087,117.643454" id="Fill-9" fill="#C9C9C9"></path>
                                    <g id="Group-13" transform="translate(0.000000, 99.000000)">
                                        <mask id="mask-5" fill="white">
                                            <use xlink:href="#path-4"></use>
                                        </mask>
                                        <g id="Clip-12"></g>
                                        <path d="M4.85791379,5.25645556 C7.63508621,6.62762222 11.4523621,9.3689 13.1872931,11.4251222 L14.9222241,13.1382889 L15.268569,13.4813444 C15.9633966,14.1653444 16.6571552,14.8514556 17.0035,15.5365111 C17.0035,15.8795667 17.3519828,15.8795667 17.3519828,16.2226222 C18.3920862,17.9357889 19.7806724,19.6489556 20.474431,21.3621222 C21.5156034,23.4183444 24.9854655,29.2439556 26.7203966,31.6421778 L29.8439138,36.0976778 C30.1913276,36.4396778 30.5376724,36.7827333 30.5376724,37.1247333 L30.5376724,36.0976778 L30.5376724,34.0414556 C30.5376724,33.6984 30.1913276,33.3553444 29.8439138,33.0133444 L26.7203966,28.5578444 C24.9854655,26.1596222 21.8619483,20.3340111 20.474431,18.2777889 C19.7806724,16.5646222 18.3920862,14.8514556 17.3519828,13.1382889 C17.3519828,12.7962889 17.0035,12.7962889 17.0035,12.4521778 C16.6571552,11.7671222 15.6159828,11.0831222 15.268569,10.3970111 C15.268569,10.0539556 14.9222241,10.0539556 14.9222241,10.0539556 L13.1872931,8.34078889 C11.4523621,6.28562222 7.28660345,3.54328889 4.85791379,2.17212222 C2.42922414,1.14401111 2.42922414,1.14401111 -0.000534482759,0.458955556 L0.693224138,1.14401111 C1.0417069,1.48812222 1.0417069,1.48812222 1.38805172,1.83012222 C2.42922414,2.51517778 4.16522414,4.22834444 4.85791379,5.25645556 C4.51156897,4.91445556 4.85791379,4.91445556 4.85791379,5.25645556" id="Fill-11" fill="#A0A0A0" mask="url(#mask-5)"></path>
                                    </g>
                                    <g id="Group-16" transform="translate(25.000000, 25.000000)">
                                        <mask id="mask-7" fill="white">
                                            <use xlink:href="#path-6"></use>
                                        </mask>
                                        <g id="Clip-15"></g>
                                        <path d="M3.2691,0.71810873 C3.2691,1.05496587 3.2691,0.71810873 3.2691,0.71810873 C3.9181,1.3928627 4.2441,1.73075952 4.8921,2.06865635 L6.8401,131.000728 L0.6721,131.000728 L3.2691,0.71810873 Z" id="Fill-14" fill="#C9C9C9" mask="url(#mask-7)"></path>
                                    </g>
                                    <path d="M35.7451829,102.759362 L31.5955564,115.578363 C31.277035,116.252774 30.9575305,116.928224 30.9575305,117.26491 C30.9575305,117.602635 30.639009,117.939321 30.639009,118.278085 C30.639009,118.278085 30.639009,118.614771 30.3195045,118.614771 C30.3195045,118.951457 30.3195045,118.951457 30,118.951457 L30.3195045,118.951457 L30.639009,123 C30.9575305,123 35.7451829,119.289182 35.7451829,119.289182 C36.0637043,119.289182 36.7027133,118.614771 37.0222179,118.277046 C40.5318521,115.578363 41.4893826,111.193134 42.1274086,107.482316 C42.4469131,106.47018 42.4469131,104.782594 42.7664176,103.771497 L43.0859221,101.747226 C43.0859221,101.409501 43.0859221,101.409501 43.4044436,101.072815 L44.6814786,96.0121358 C44.6814786,95.67545 44.6814786,95.337725 45,95.337725 C44.0424695,95 43.722965,95 42.7664176,95 L41.8088871,95 C39.5753048,95 39.5753048,95 38.9362957,96.0121358 C38.6177743,96.6865467 37.9787652,97.3619967 37.9787652,97.6997217 C37.6592607,98.3730933 37.3407393,98.7108183 37.0212348,99.3862683 C36.7027133,100.05964 36.0637043,101.747226 35.7451829,102.759362" id="Fill-17" fill="#C9C9C9"></path>
                                    <path d="M44.8756257,94.1950731 L46.1751251,94.5368487 C47.4756257,95.2203998 48.4497497,95.5611238 49.7502503,96.9271745 L51.3751251,98.6339493 C51.7005006,98.9746732 52.025876,99.6571728 52.3512514,100 C52.6756257,99.6571728 53,97.2678985 53,96.5843473 C53,94.8775726 52.3512514,93.8543491 50.7253754,92.4882983 C49.1005006,91.1232992 46.1751251,90.7815236 44.225876,91.1232992 C42.6010012,91.4640232 41.3005006,92.1475744 40,93.1707979 C40.3253754,93.5136251 41.3005006,93.1707979 41.9502503,93.5136251 C43.5751251,93.8543491 43.5751251,93.8543491 44.8756257,94.1950731" id="Fill-19" fill="#A0A0A0"></path>
                                    <path d="M23.2558002,78.7590737 L27.4044436,91.5775996 C27.7239481,92.2519855 28.0424695,92.9274104 28.0424695,93.2640837 C28.0424695,93.6017962 28.361974,93.9384695 28.361974,94.2772211 C28.361974,94.2772211 28.361974,94.6138945 28.6814786,94.6138945 C28.6814786,94.9505678 28.6814786,94.9505678 29,94.9505678 L28.6814786,94.9505678 L28.361974,99 C28.0424695,99 23.2558002,95.2882803 23.2558002,95.2882803 C22.9362957,95.2882803 22.2972867,94.6138945 21.9787652,94.2772211 C18.4681479,91.5775996 17.5106174,87.1925332 16.8725914,83.4818526 C16.55407,82.4697543 16.55407,80.7832702 16.2335824,79.771172 L15.915061,77.7469754 C15.915061,77.409263 15.915061,77.409263 15.5955564,77.0725896 L14.3195045,72.0120983 C14.3195045,71.6754249 14.3195045,71.3377125 14,71.3377125 C14.9585136,71 15.277035,71 16.2335824,71 L17.1920959,71 C19.4256783,71 19.4256783,71 20.0637043,72.0131374 C20.3832088,72.6864841 21.0222179,73.361909 21.0222179,73.6996215 C21.3407393,74.3729682 21.6602438,74.7106806 21.9787652,75.3861055 C22.2972867,76.0604914 22.9362957,77.409263 23.2558002,78.7590737" id="Fill-21" fill="#C9C9C9"></path>
                                    <path d="M14.1253754,71.1961247 L12.8248749,71.5368487 C11.5243743,72.2203998 10.5502503,72.5611238 9.24974971,73.9271745 C8.6,74.6096741 7.95025029,75.2932253 7.62487486,75.6339493 C7.30050058,75.9757248 6.97412399,76.6571728 6.64974971,77 C6.32537543,76.6571728 6,74.2678985 6,73.585399 C6,71.8775726 6.64974971,70.8543491 8.27462457,69.4882983 C9.89949942,68.1232992 12.8248749,67.7815236 14.7751251,68.1232992 C16.4,68.4640232 17.6994994,69.1475744 19,70.1707979 C18.6756257,70.5136251 17.6994994,70.1707979 17.0507509,70.5136251 C15.4248749,70.5136251 15.7502503,70.8543491 14.1253754,71.1961247" id="Fill-23" fill="#A0A0A0"></path>
                                    <path d="M32.5502503,60.3727927 L29.3005006,73.9764318 C28.9761263,74.6748809 28.9761263,75.3722555 28.6497497,76.06963 C28.6497497,76.4188545 28.3253754,76.7680791 28.3253754,77.1162291 L28.3253754,77.4643791 C28.3253754,77.8136036 28.3253754,77.8136036 28,77.8136036 L28.3253754,77.8136036 L28.9761263,82 C29.3005006,82 33.8507509,77.8136036 33.8507509,77.8136036 C34.1751251,77.8136036 34.8248749,77.1162291 35.1512514,76.7680791 C38.4010012,73.9764318 39.0507509,69.0926609 39.3751251,65.2554891 C39.3751251,64.20889 39.7015017,62.4649164 39.7015017,61.4193918 L40.025876,58.9769691 L40.025876,58.2795945 L41,53.0476736 L41,52.3492245 C40.025876,52 39.7015017,52 38.7253754,52 L37.7502503,52 C35.4756257,52 35.4756257,52 34.8248749,53.3958236 C34.5005006,54.0931982 34.1751251,54.7916473 33.8507509,55.4890218 C33.5263766,56.1863964 33.2,56.8837709 33.2,57.5811455 C33.5263766,57.5811455 32.8756257,59.3251191 32.5502503,60.3727927" id="Fill-25" fill="#C9C9C9"></path>
                                    <path d="M42.5502503,53.0771229 L43.8507509,53.3842103 C45.4756257,54.0002808 46.4507509,54.3073683 47.7502503,55.2305262 C48.4010012,55.8465967 49.0507509,56.1536841 49.7015017,56.7697546 C50.025876,57.0768421 50.3512514,57.6919648 50.6756257,58 C51,57.6919648 51,55.5385615 51,54.922491 C50.6756257,53.3842103 50.025876,52.4620002 48.4010012,51.230807 C46.7761263,49.9996139 43.8507509,49.6925264 41.9005006,50.3076491 C40.2756257,50.6147366 39.3005006,51.5388423 38,52.4620002 L39.9502503,52.4620002 C41.2507509,52.7690877 41.2507509,52.7690877 42.5502503,53.0771229" id="Fill-27" fill="#A0A0A0"></path>
                                    <path d="M26.3333333,16.6666356 L28.3325632,26.3323844 C28.3325632,26.6660755 28.6662816,27.3334578 28.6662816,27.6661222 C28.6662816,27.9987866 28.6662816,27.9987866 29,28.3324777 L29,28.6661689 L29,28.99986 L28.6662816,28.99986 L28.3325632,32 L25.3321782,28.99986 C24.9994866,28.99986 24.6657682,28.3324777 24.6657682,28.3324777 C22.6665383,26.3323844 22.3328199,22.6658888 21.9991015,19.99944 C21.9991015,18.9993933 21.9991015,17.9993466 21.66641,17.3329911 L21.66641,15.6665889 L21.66641,15.0002334 L21,11.0000467 L21,10.3336911 C21.66641,10 21.66641,10 22.3328199,10 L22.9992299,10 C24.3330766,10 24.3330766,10 24.6657682,11.0000467 C24.9994866,11.3337378 24.9994866,12.0000933 25.3321782,12.3337845 C25.6669234,12.6664489 25.6669234,13.3328044 25.6669234,13.6664955 C25.6669234,14.6665422 25.9996149,15.6665889 26.3333333,16.6666356" id="Fill-29" fill="#C9C9C9"></path>
                                    <path d="M21.7680388,10.8058592 L21.1218457,11.1287911 C20.1520582,11.4507294 19.5058651,11.7736614 18.8586764,12.7414636 C18.535082,13.0634019 17.8888889,13.3863339 17.8888889,14.0321978 C17.5652945,14.3541361 17.5652945,14.677068 17.2426958,15 C16.9191014,14.677068 16.9191014,13.0634019 17.2426958,12.7414636 C17.2426958,11.4507294 17.8888889,10.8058592 18.8586764,9.83805694 C19.8284639,8.87025472 21.7680388,8.87025472 22.7378263,9.19318667 C23.7066181,9.51611862 24.3538069,10.1609889 25,10.8058592 L24.0302125,10.8058592 C22.7378263,10.4839208 22.7378263,10.4839208 21.7680388,10.8058592" id="Fill-31" fill="#A0A0A0"></path>
                                </g>
                                <g transform="translate(0.000000, 56.000000)">
                                    <path d="M20.1625042,9.28417405 C20.3782884,8.42020513 20.5940726,7.55690132 20.8111888,6.6929324 L20.8111888,6.477439 C21.026973,6.04512199 21.026973,5.82962859 21.2434232,5.39797669 C21.2434232,5.39797669 21.2434232,5.18181818 21.4592075,5.18181818 L21.8921079,4.31784927 C22.3243423,3.23838695 23.6210456,1.72727273 24.2703963,1.07946232 C24.9190809,0.431651906 25.1348651,0.431651906 26,0 C26,0 26,0.215493401 25.7835498,0.215493401 L25.5670996,0.431651906 C25.3513154,0.863303812 24.9190809,1.72727273 24.7019647,2.15892463 C24.4861805,2.80673504 24.0539461,3.67070396 23.8381618,4.53400777 L23.6210456,5.61347009 C23.4052614,6.04512199 23.1888112,7.34074282 23.1888112,7.98855323 L23.1888112,8.20471173 L22.5401265,13.6026884 L22.5401265,13.8181818 C22.5401265,14.4659922 22.3243423,14.8976441 22.1078921,15.5454545 C22.1078921,15.7616131 21.8921079,15.9771065 21.8921079,16.1939301 C21.4592075,17.0572339 21.2434232,17.7050443 20.3782884,18.3528547 L19.9460539,18.7845066 C19.7302697,19 19.5131535,19 19.5131535,19 L18.4322344,19 C18.4322344,19 18.2164502,18.3528547 18.2164502,18.1366962 L18,17.0572339 C18,16.8410754 18,16.6249169 18.2164502,16.4094235 L18.8651349,14.2504988 C19.2973693,12.954878 19.9460539,10.3636364 20.1625042,9.28417405" id="Fill-1" fill="#C9C9C9"></path>
                                    <path d="M24.7025227,2.35718215 C23.8379818,3.00011002 22.7569728,4.7143643 22.3247024,5.57116139 L21.8917659,6.42861858 C21.8917659,6.42861858 21.8917659,6.6431479 21.6759637,6.6431479 C21.4594955,7.07154644 21.2436933,7.28541567 21.2436933,7.71447431 L21.2436933,7.92834354 C21.026559,8.78580073 20.8107568,9.64325791 20.5942886,10.500055 C20.3784864,11.5713814 19.7297477,14.3569621 19.2974773,15.4282885 L18.6487387,17.5716015 C18.6487387,17.7861308 18.4322704,18 18.4322704,18 L18.4322704,17.5716015 L18,16.9286736 C18,16.7141443 18,16.4996149 18.2164682,16.2857457 L18.8645408,14.1430929 C19.2974773,12.8572372 19.9455499,10.2855257 20.1626842,9.21419927 C20.3784864,8.35674209 20.5942886,7.49994499 20.8107568,6.6431479 L20.8107568,6.42861858 C21.026559,6.00022003 21.026559,5.78569071 21.2436933,5.35729216 C21.2436933,5.35729216 21.2436933,5.14276284 21.4594955,5.14276284 L21.8917659,4.28530566 C22.3247024,3.21397924 23.6215136,1.71425428 24.2709183,1.07132641 C24.9189909,0.428398548 25.1347931,0.428398548 26,0 C26,0 26,0.213869229 25.7841978,0.213869229 L25.5677296,0.428398548 C25.3519274,0.857457186 24.9189909,1.71425428 24.7025227,2.14265283 C24.9189909,2.14265283 24.7025227,2.14265283 24.7025227,2.35718215" id="Fill-3" fill="#A0A0A0"></path>
                                    <path d="M14.8974015,24.9477626 C14.4616934,24.0632296 13.8071242,22.9580739 13.1532264,22.0735409 C13.1532264,21.8529183 12.9357081,21.8529183 12.9357081,21.8529183 C12.7175184,21.4109922 12.2818103,20.9683852 12.0636206,20.5264591 L11.8461022,20.3058366 L10.9740147,19.4213035 C10.1019272,18.3161479 7.92271543,16.7683852 6.61491983,16.1058366 C5.30779559,15.4419261 5.30779559,15.4419261 4,15 C4.21818972,15 4.21818972,15.2213035 4.43570808,15.2213035 C4.6538978,15.2213035 4.6538978,15.4419261 4.87141616,15.4419261 C5.30779559,15.8838521 6.17988311,16.7683852 6.61491983,17.2109922 C7.26948898,18.0948444 7.92271543,18.7580739 8.57661322,19.6419261 L9.44870073,20.9683852 C9.6662191,21.4109922 10.5383066,22.9580739 10.755825,23.6213035 C10.755825,23.6213035 10.755825,23.842607 10.9740147,23.842607 L13.3720875,30.0316148 L13.3720875,30.2529183 C13.8071242,31.1374514 13.8071242,31.3580739 14.4616934,32.242607 C14.6792118,32.4632296 14.6792118,32.6845331 14.8974015,32.9058366 C15.7688176,34.0109922 16.4227154,34.6735409 17.730511,35.3374514 C17.9487007,35.5580739 18.3837375,35.5580739 18.6025985,35.7793774 C18.8201169,35.7793774 19.255825,36 19.4740147,36 C19.6922044,36 20.5636206,35.7793774 21,35.7793774 L21,34.6735409 L21,33.5683852 C21,33.3477626 20.7818103,33.1264591 20.5636206,32.9058366 L19.0383066,30.4735409 C17.2941316,29.1477626 15.5512993,26.0529183 14.8974015,24.9477626" id="Fill-5" fill="#C9C9C9"></path>
                                    <path d="M5.59484661,17.826531 C6.89160388,18.4787558 9.05419806,20.0001674 9.91870291,21.0869856 L10.7838738,21.956842 L11.000333,22.1738039 C11.2161262,22.6090669 11.6490447,23.0436602 11.8648379,23.4782536 C11.8648379,23.6958851 12.0812971,23.6958851 12.0812971,23.6958851 C12.7300087,24.5650718 13.3787204,25.6525597 13.8109728,26.5217464 C14.4596845,27.8261961 16.1893602,30.6520575 17.0545311,32.1741387 L18.5684136,34.564737 C18.7842068,34.7823685 18.7842068,35 19,35 L19,34.564737 L19,33.4779188 C19,33.2609569 18.7842068,33.0433254 18.5684136,32.8256939 L17.0545311,30.434426 C16.1893602,29.1306459 14.4596845,26.087153 13.8109728,24.7827033 C13.3787204,23.9135166 12.7300087,22.8260287 12.0812971,21.956842 C12.0812971,21.7392105 11.8648379,21.7392105 11.8648379,21.7392105 C11.6490447,21.3039475 11.2161262,20.8700238 11.000333,20.4354304 L10.7838738,20.2171293 L9.91870291,19.3479425 C9.05419806,18.2604547 6.89160388,16.7390431 5.59484661,16.0868182 C4.2974233,15.435263 4.2974233,15.435263 3,15 C3.21645923,15 3.21645923,15.2176315 3.43291845,15.2176315 C3.64871165,15.2176315 3.64871165,15.435263 3.86517088,15.435263 C4.2974233,15.8698564 5.16259418,16.7390431 5.59484661,17.1736365 L5.59484661,17.826531" id="Fill-7" fill="#A0A0A0"></path>
                                    <path d="M12.7387195,75.1432343 C12.3070676,74.0712871 11.4430987,73 10.7952883,71.9287129 C10.7952883,71.7148515 10.5797949,71.7148515 10.5797949,71.49967 C10.3636364,71.0712871 9.71582595,70.6435644 9.50033255,70.2145215 C9.50033255,70 9.28417405,70 9.28417405,70 L8.20471173,68.9287129 C7.12524941,67.6435644 4.53400777,65.9287129 3.02289355,65.0712871 C1.51111422,64.4290429 1.51111422,64.4290429 0,64 C0.215493401,64.2145215 0.215493401,64.2145215 0.431651906,64.4290429 C0.647145308,64.6435644 0.647145308,64.6435644 0.863968915,64.8574257 C1.51111422,65.2858086 2.59057654,66.3570957 3.02289355,67 C3.88619736,67.8574257 4.53400777,68.9287129 5.18181818,69.7861386 L6.0457871,71.2858086 C6.477439,71.9287129 7.34074282,73.6435644 7.55690132,74.2858086 C7.55690132,74.49967 7.77239472,74.49967 7.77239472,74.7148515 L10.5797949,81.7854785 L10.5797949,82 C11.0114468,82.8574257 11.2276053,83.2858086 11.6592572,84.1425743 C11.8747506,84.3570957 12.0909091,84.5709571 12.0909091,84.7854785 C12.9542129,85.8567657 13.8181818,86.7141914 15.3299611,87.3570957 C15.5461196,87.5709571 16.193265,87.7854785 16.4094235,87.7854785 C16.8410754,88 17.0572339,88 17.2727273,88 C17.7050443,88 18.5690132,87.7854785 19,87.5709571 L19,86.2858086 L19,85 C19,84.7854785 18.7845066,84.5709571 18.5690132,84.3570957 L16.625582,81.5709571 C15.5461196,80.0712871 13.3865299,76.4283828 12.7387195,75.1432343" id="Fill-9" fill="#C9C9C9"></path>
                                    <g id="Group-13" transform="translate(0.000000, 64.000000)">
                                        <mask id="mask-9" fill="white">
                                            <use xlink:href="#path-8"></use>
                                        </mask>
                                        <g id="Clip-12"></g>
                                        <path d="M3.13413793,3.31986667 C4.92586207,4.18586667 7.38862069,5.9172 8.50793103,7.21586667 L9.62724138,8.29786667 L9.85068966,8.51453333 C10.2989655,8.94653333 10.7465517,9.37986667 10.97,9.81253333 C10.97,10.0292 11.1948276,10.0292 11.1948276,10.2458667 C11.8658621,11.3278667 12.7617241,12.4098667 13.2093103,13.4918667 C13.8810345,14.7905333 16.1196552,18.4698667 17.2389655,19.9845333 L19.2541379,22.7985333 C19.4782759,23.0145333 19.7017241,23.2312 19.7017241,23.4472 L19.7017241,22.7985333 L19.7017241,21.4998667 C19.7017241,21.2832 19.4782759,21.0665333 19.2541379,20.8505333 L17.2389655,18.0365333 C16.1196552,16.5218667 14.1044828,12.8425333 13.2093103,11.5438667 C12.7617241,10.4618667 11.8658621,9.37986667 11.1948276,8.29786667 C11.1948276,8.08186667 10.97,8.08186667 10.97,7.86453333 C10.7465517,7.43186667 10.0748276,6.99986667 9.85068966,6.56653333 C9.85068966,6.34986667 9.62724138,6.34986667 9.62724138,6.34986667 L8.50793103,5.26786667 C7.38862069,3.96986667 4.70103448,2.23786667 3.13413793,1.37186667 C1.56724138,0.722533333 1.56724138,0.722533333 -0.000344827586,0.289866667 L0.447241379,0.722533333 C0.672068966,0.939866667 0.672068966,0.939866667 0.895517241,1.15586667 C1.56724138,1.58853333 2.68724138,2.67053333 3.13413793,3.31986667 C2.91068966,3.10386667 3.13413793,3.10386667 3.13413793,3.31986667" id="Fill-11" fill="#A0A0A0" mask="url(#mask-9)"></path>
                                    </g>
                                    <g id="Group-16" transform="translate(16.000000, 16.000000)">
                                        <mask id="mask-11" fill="white">
                                            <use xlink:href="#path-10"></use>
                                        </mask>
                                        <g id="Clip-15"></g>
                                        <path d="M1.86805714,0.460466667 C1.86805714,0.676466667 1.86805714,0.460466667 1.86805714,0.460466667 C2.23891429,0.893133333 2.4252,1.1098 2.79548571,1.32646667 L3.90862857,84.0004667 L0.384057143,84.0004667 L1.86805714,0.460466667 Z" id="Fill-14" fill="#C9C9C9" mask="url(#mask-11)"></path>
                                    </g>
                                    <path d="M22.8301219,65.9881611 L20.0637043,74.2289479 C19.8513567,74.6624977 19.6383537,75.0967155 19.6383537,75.3131564 C19.6383537,75.5302654 19.426006,75.7467063 19.426006,75.9644832 C19.426006,75.9644832 19.426006,76.1809241 19.213003,76.1809241 C19.213003,76.397365 19.213003,76.397365 19,76.397365 L19.213003,76.397365 L19.426006,79 C19.6383537,79 22.8301219,76.6144739 22.8301219,76.6144739 C23.0424695,76.6144739 23.4684756,76.1809241 23.6814786,75.9638152 C26.0212348,74.2289479 26.6595884,71.409872 27.084939,69.0243459 C27.2979421,68.3736871 27.2979421,67.2888105 27.5109451,66.6388198 L27.7239481,65.3375023 C27.7239481,65.1203934 27.7239481,65.1203934 27.9362957,64.9039525 L28.7876524,61.6506587 C28.7876524,61.4342179 28.7876524,61.2171089 29,61.2171089 C28.3616463,61 28.1486433,61 27.5109451,61 L26.8725914,61 C25.3835365,61 25.3835365,61 24.9575305,61.6506587 C24.7451829,62.0842086 24.3191768,62.5184264 24.3191768,62.7355353 C24.1061738,63.1684171 23.8938262,63.3855261 23.6808232,63.8197439 C23.4684756,64.2526257 23.0424695,65.3375023 22.8301219,65.9881611" id="Fill-17" fill="#C9C9C9"></path>
                                    <path d="M29.0003851,60.1300487 L29.800077,60.3578991 C30.6003851,60.8135999 31.199846,61.0407492 32.000154,61.9514497 L33.000077,63.0892995 C33.200308,63.3164488 33.4005391,63.7714485 33.6007701,64 C33.8003851,63.7714485 34,62.178599 34,61.7228982 C34,60.5850484 33.6007701,59.9028994 32.600231,58.9921989 C31.600308,58.0821995 29.800077,57.8543491 28.6005391,58.0821995 C27.6006161,58.3093488 26.800308,58.7650496 26,59.4471986 C26.200231,59.6757501 26.800308,59.4471986 27.200154,59.6757501 C28.200077,59.9028994 28.200077,59.9028994 29.0003851,60.1300487" id="Fill-19" fill="#A0A0A0"></path>
                                    <path d="M15.1705335,49.987976 L17.9362957,58.2284569 C18.1492987,58.6619906 18.3616463,59.0961924 18.3616463,59.3126253 C18.3616463,59.5297261 18.5746494,59.746159 18.5746494,59.9639279 C18.5746494,59.9639279 18.5746494,60.1803607 18.7876524,60.1803607 C18.7876524,60.3967936 18.7876524,60.3967936 19,60.3967936 L18.7876524,60.3967936 L18.5746494,63 C18.3616463,63 15.1705335,60.6138945 15.1705335,60.6138945 C14.9575305,60.6138945 14.5315244,60.1803607 14.3191768,59.9639279 C11.9787652,58.2284569 11.3404116,55.4094856 10.915061,53.0240481 C10.7027133,52.3734135 10.7027133,51.2892452 10.4890549,50.6386106 L10.2767073,49.3373413 C10.2767073,49.1202405 10.2767073,49.1202405 10.0637043,48.9038076 L9.21300301,45.6506346 C9.21300301,45.4342017 9.21300301,45.2171009 9,45.2171009 C9.63900904,45 9.85135667,45 10.4890549,45 L11.128064,45 C12.6171189,45 12.6171189,45 13.0424695,45.6513026 C13.2554725,46.0841683 13.6814786,46.5183701 13.6814786,46.7354709 C13.8938262,47.1683367 14.1068292,47.3854375 14.3191768,47.8196393 C14.5315244,48.253173 14.9575305,49.1202405 15.1705335,49.987976" id="Fill-21" fill="#C9C9C9"></path>
                                    <path d="M9.00023104,45.1307498 L8.19992299,45.3578991 C7.39961494,45.8135999 6.80015402,46.0407492 5.99984598,46.9514497 C5.6,47.4064494 5.20015402,47.8621502 4.99992299,48.0892995 C4.80030805,48.3171499 4.59946092,48.7714485 4.39984598,49 C4.20023104,48.7714485 4,47.178599 4,46.7235993 C4,45.5850484 4.39984598,44.9028994 5.39976896,43.9921989 C6.39969195,43.0821995 8.19992299,42.8543491 9.40007701,43.0821995 C10.4,43.3093488 11.199692,43.7650496 12,44.4471986 C11.8003851,44.6757501 11.199692,44.4471986 10.8004621,44.6757501 C9.79992299,44.6757501 10.000154,44.9028994 9.00023104,45.1307498" id="Fill-23" fill="#A0A0A0"></path>
                                    <path d="M20.800154,38.3027687 L18.800308,46.9184068 C18.6006931,47.3607579 18.6006931,47.8024285 18.399846,48.244099 C18.399846,48.4652745 18.200231,48.6864501 18.200231,48.9069451 L18.200231,49.1274401 C18.200231,49.3486156 18.200231,49.3486156 18,49.3486156 L18.200231,49.3486156 L18.6006931,52 C18.800308,52 21.6004621,49.3486156 21.6004621,49.3486156 C21.800077,49.3486156 22.199923,48.9069451 22.4007701,48.6864501 C24.4006161,46.9184068 24.8004621,43.8253519 25.000077,41.3951431 C25.000077,40.732297 25.2009241,39.6277804 25.2009241,38.9656148 L25.4005391,37.4187471 L25.4005391,36.9770765 L26,33.6635266 L26,33.2211755 C25.4005391,33 25.2009241,33 24.600231,33 L24.000154,33 C22.6003851,33 22.6003851,33 22.199923,33.8840216 C22.000308,34.3256922 21.800077,34.7680433 21.6004621,35.2097138 C21.4008471,35.6513844 21.2,36.0930549 21.2,36.5347255 C21.4008471,36.5347255 21.0003851,37.6392421 20.800154,38.3027687" id="Fill-25" fill="#C9C9C9"></path>
                                    <path d="M27.800154,33.9232018 L28.6004621,34.1151315 C29.6003851,34.5001755 30.2004621,34.6921052 31.000154,35.2690789 C31.4006161,35.6541229 31.8004621,35.8460526 32.2009241,36.2310966 C32.4005391,36.4230263 32.6007701,36.807478 32.8003851,37 C33,36.807478 33,35.4616009 33,35.0765569 C32.8003851,34.1151315 32.4005391,33.5387501 31.4006161,32.7692544 C30.4006931,31.9997587 28.6004621,31.807829 27.400308,32.1922807 C26.4003851,32.3842103 25.800308,32.9617764 25,33.5387501 L26.200154,33.5387501 C27.0004621,33.7306798 27.0004621,33.7306798 27.800154,33.9232018" id="Fill-27" fill="#A0A0A0"></path>
                                    <path d="M17.3333333,10.2424044 L18.582852,16.3933355 C18.582852,16.6056844 18.791426,17.0303822 18.791426,17.2420778 C18.791426,17.4537733 18.791426,17.4537733 19,17.6661222 L19,17.8784711 L19,18.09082 L18.791426,18.09082 L18.582852,20 L16.7076113,18.09082 C16.4996791,18.09082 16.2911051,17.6661222 16.2911051,17.6661222 C15.0415864,16.3933355 14.8330125,14.0601111 14.6244385,12.36328 C14.6244385,11.7268866 14.6244385,11.0904933 14.4165062,10.6664489 L14.4165062,9.60601111 L14.4165062,9.18196668 L14,6.63639334 L14,6.21234891 C14.4165062,6 14.4165062,6 14.8330125,6 L15.2495187,6 C16.0831729,6 16.0831729,6 16.2911051,6.63639334 C16.4996791,6.84874224 16.4996791,7.27278667 16.7076113,7.48513558 C16.9168271,7.6968311 16.9168271,8.12087553 16.9168271,8.33322444 C16.9168271,8.96961777 17.1247593,9.60601111 17.3333333,10.2424044" id="Fill-29" fill="#C9C9C9"></path>
                                    <path d="M13.9800243,7.20390611 L13.5761536,7.41919407 C12.9700364,7.63381962 12.5661657,7.84910759 12.1616727,8.49430907 C11.9594262,8.70893461 11.5555556,8.92422258 11.5555556,9.35479852 C11.3533091,9.56942406 11.3533091,9.78471203 11.1516849,10 C10.9494384,9.78471203 10.9494384,8.70893461 11.1516849,8.49430907 C11.1516849,7.63381962 11.5555556,7.20390611 12.1616727,6.55870463 C12.7677899,5.91350314 13.9800243,5.91350314 14.5861414,6.12879111 C15.1916363,6.34407908 15.5961293,6.77399259 16,7.20390611 L15.3938828,7.20390611 C14.5861414,6.98928056 14.5861414,6.98928056 13.9800243,7.20390611" id="Fill-31" fill="#A0A0A0"></path>
                                </g>
                            </g>
                        </g>
                        <g id="&lt;HelloWorld/&gt;" mask="url(#mask-2)" fill-rule="nonzero">
                            <g transform="translate(39.640000, 61.340000)">
                                <polygon id="&lt;" fill="#637381" points="14.1 18.24 -7.2475359e-13 12.54 -7.2475359e-13 10.23 14.1 4.5 14.1 7.08 3.27 11.37 14.1 15.63"></polygon>
                                <path d="M32.16,21.66 L32.16,12 L22.26,12 L22.26,21.66 L19.65,21.66 L19.65,0.66 L22.26,0.66 L22.26,9.54 L32.16,9.54 L32.16,0.66 L34.77,0.66 L34.77,21.66 L32.16,21.66 Z M46.11,22.02 C41.91,22.02 39.3,18.66 39.3,13.98 C39.3,8.91 42.03,5.97 46.11,5.97 C49.56,5.97 52.44,8.22 52.44,13.26 C52.44,13.74 52.41,14.4 52.35,15 L41.97,15 C42.18,17.82 43.86,19.65 46.17,19.65 C47.34,19.65 48.51,19.23 49.47,18.27 L51.06,20.04 C49.92,21.18 48.18,22.02 46.11,22.02 Z M41.94,12.78 L49.8,12.78 C49.77,9.3 47.73,8.28 46.11,8.28 C43.89,8.28 42.09,9.63 41.94,12.78 Z M56.49,21.66 L56.49,1.23 L59.1,-2.34479103e-13 L59.1,21.66 L56.49,21.66 Z M64.35,21.66 L64.35,1.23 L66.96,-2.34479103e-13 L66.96,21.66 L64.35,21.66 Z M77.94,22.02 C73.83,22.02 71.16,19.08 71.16,14.01 C71.16,8.97 73.83,5.97 77.94,5.97 C82.05,5.97 84.72,8.91 84.72,13.98 C84.72,19.02 82.05,22.02 77.94,22.02 Z M77.94,19.59 C80.52,19.59 82.08,17.49 82.08,13.98 C82.08,10.5 80.55,8.37 77.94,8.37 C75.33,8.37 73.8,10.44 73.8,14.01 C73.8,17.49 75.33,19.59 77.94,19.59 Z" id="Hello" fill="#0B9DCC"></path>
                                <path d="M92.1,21.66 L87.81,0.66 L90.54,0.66 L93.12,14.34 C93.3,15.27 93.42,15.96 93.51,16.59 C93.63,15.96 93.84,15.3 94.08,14.37 L97.8,0.66 L99.87,0.66 L103.62,14.34 C103.86,15.21 104.01,15.81 104.1,16.38 C104.19,15.81 104.31,15.18 104.49,14.31 L107.34,0.66 L110.01,0.66 L105.45,21.66 L103.38,21.66 L99.33,7.32 C99.09,6.45 98.91,5.85 98.79,5.25 C98.67,5.85 98.52,6.45 98.28,7.32 L94.23,21.66 L92.1,21.66 Z M119.88,22.02 C115.77,22.02 113.1,19.08 113.1,14.01 C113.1,8.97 115.77,5.97 119.88,5.97 C123.99,5.97 126.66,8.91 126.66,13.98 C126.66,19.02 123.99,22.02 119.88,22.02 Z M119.88,19.59 C122.46,19.59 124.02,17.49 124.02,13.98 C124.02,10.5 122.49,8.37 119.88,8.37 C117.27,8.37 115.74,10.44 115.74,14.01 C115.74,17.49 117.27,19.59 119.88,19.59 Z M130.74,21.66 L130.74,6.33 L133.35,6.33 L133.35,8.34 C134.04,6.81 135.27,5.97 136.98,5.97 C137.97,5.97 138.81,6.3 139.35,6.75 L138.96,9.21 C138.48,8.88 137.82,8.55 136.77,8.55 C135.3,8.55 133.35,9.54 133.35,13.02 L133.35,21.66 L130.74,21.66 Z M142.41,21.66 L142.41,1.23 L145.02,-2.34479103e-13 L145.02,21.66 L142.41,21.66 Z M155.55,22.02 C151.65,22.02 149.22,18.93 149.22,13.98 C149.22,8.94 151.74,5.97 155.55,5.97 C157.35,5.97 158.55,6.63 159.42,7.41 L159.42,1.23 L162.03,-2.34479103e-13 L162.03,21.66 L159.42,21.66 L159.42,20.46 C158.55,21.36 157.38,22.02 155.55,22.02 Z M155.91,19.59 C157.35,19.59 158.64,18.84 159.42,17.52 L159.42,10.32 C158.85,9.42 157.68,8.37 155.91,8.37 C153.33,8.37 151.86,10.38 151.86,13.98 C151.86,17.16 153.39,19.59 155.91,19.59 Z" id="World" fill="#A7E02F"></path>
                                <path d="M164.25,25.56 L176.07,0.3 L178.65,0.3 L166.86,25.56 L164.25,25.56 Z M195.93,12.54 L181.83,18.24 L181.83,15.66 L192.63,11.37 L181.83,7.08 L181.83,4.5 L195.93,10.23 L195.93,12.54 Z" id="/&gt;" fill="#637381"></path>
                            </g>
                        </g>
                        <path d="M57.5,128 L57.5,110.5 L59.675,110.5 L59.675,128 L57.5,128 Z M67.15,117.125 L67.15,128 L64.975,128 L64.975,117.125 L63,117.125 L63,115.225 L64.975,115.225 L64.975,113.1 C64.975,110.875 66.375,110.2 67.75,110.2 C68.725,110.2 69.475,110.45 70.125,110.8 L70.125,112.625 C69.475,112.325 68.925,112.15 68.3,112.15 C67.25,112.15 67.15,112.8 67.15,113.475 L67.15,115.225 L70.125,115.225 L70.125,117.125 L67.15,117.125 Z M79.975,132.85 L81.925,127.675 L77.2,115.225 L79.375,115.225 L82.55,123.925 C82.725,124.375 82.825,124.725 82.95,125.15 C83.075,124.725 83.175,124.375 83.35,123.925 L86.575,115.225 L88.8,115.225 L82.175,132.85 L79.975,132.85 Z M96.6,128.3 C93.175,128.3 90.95,125.85 90.95,121.625 C90.95,117.425 93.175,114.925 96.6,114.925 C100.025,114.925 102.25,117.375 102.25,121.6 C102.25,125.8 100.025,128.3 96.6,128.3 Z M96.6,126.275 C98.75,126.275 100.05,124.525 100.05,121.6 C100.05,118.7 98.775,116.925 96.6,116.925 C94.425,116.925 93.15,118.65 93.15,121.625 C93.15,124.525 94.425,126.275 96.6,126.275 Z M113.4,128 L113.4,126.775 C112.55,127.875 111.525,128.3 110.175,128.3 C107.175,128.3 105.525,126.7 105.525,122.6 L105.525,115.225 L107.7,115.225 L107.7,122.925 C107.7,125.35 108.875,126.275 110.45,126.275 C112.125,126.275 113.4,125.475 113.4,122.975 L113.4,115.225 L115.575,115.225 L115.575,128 L113.4,128 Z M130.55,128.3 C127.325,128.3 125.525,125.9 125.525,122.625 C125.525,118.45 128.15,114.925 132.25,114.925 C134.725,114.925 136.475,116.475 136.95,118.675 L133.8,119.7 C133.6,118.725 133,118.05 131.85,118.05 C130.125,118.05 128.8,119.925 128.8,122.375 C128.8,123.9 129.45,125.175 130.75,125.175 C131.625,125.175 132.6,124.725 133.175,123.325 L136.075,124.275 C135.175,126.8 133.05,128.3 130.55,128.3 Z M143.475,128.3 C140.125,128.3 138.425,126.3 138.425,122.7 C138.425,118.175 141.15,114.925 145.175,114.925 C148.2,114.925 150.05,117.125 150.05,120.375 C150.05,125.1 147.325,128.3 143.475,128.3 Z M143.75,125.15 C145.525,125.15 146.85,123.375 146.85,120.925 C146.85,119.1 146.15,118.05 144.7,118.05 C142.95,118.05 141.625,119.9 141.625,122.225 C141.625,124.15 142.325,125.15 143.75,125.15 Z M155.925,128.3 C153.375,128.3 151.85,126.175 151.85,123.05 C151.85,117.875 154.925,114.925 158.175,114.925 C159.6,114.925 160.35,115.55 160.7,116.15 L161.6,111.025 L165.025,109.95 L161.85,128 L158.7,128 L158.9,126.85 C158.225,127.775 157.15,128.3 155.925,128.3 Z M157.05,125.175 C157.925,125.175 158.825,124.75 159.325,124.125 L160.2,119.125 C159.95,118.55 159.35,118.05 158.35,118.05 C156.225,118.05 155.05,120.125 155.05,122.6 C155.05,124.125 155.675,125.175 157.05,125.175 Z M170.5,128.3 C167.325,128.3 165.175,126.425 165.175,122.85 C165.175,118.9 167.725,114.925 172.175,114.925 C175.325,114.925 177.075,117.1 177.075,120.05 C177.075,121 176.925,121.95 176.6,122.875 L168.45,122.875 L168.45,123.125 C168.45,124.625 169.625,125.45 170.9,125.45 C171.925,125.45 173.05,124.9 173.775,124.125 L175.425,126.225 C174.175,127.525 172.675,128.3 170.5,128.3 Z M168.925,120.125 L173.975,120.125 C173.975,119.9 173.95,119.7 173.925,119.525 C173.7,118.3 172.9,117.775 171.825,117.775 C170.425,117.775 169.325,118.575 168.925,120.125 Z M187.95,113.7 C187.025,113.7 186.4,113 186.4,112.15 C186.4,110.95 187.45,109.975 188.45,109.975 C189.425,109.975 190.05,110.675 190.05,111.525 C190.05,112.725 189.025,113.7 187.95,113.7 Z M183.8,128 L186.05,115.225 L189.275,115.225 L187.025,128 L183.8,128 Z M194.15,128.3 C192.55,128.3 191.475,127.325 191.475,125.85 C191.475,125.425 191.55,124.625 191.675,123.95 L192.7,118.075 L190.725,118.075 L191.225,115.225 L193.2,115.225 L193.925,111.025 L197.325,109.95 L196.4,115.225 L199.1,115.225 L198.6,118.075 L195.9,118.075 L194.9,123.75 C194.8,124.3 194.75,124.575 194.75,124.775 C194.75,125.275 195.025,125.5 195.625,125.5 C196.275,125.5 196.775,125.325 197.525,125 L196.925,127.75 C196.15,128.1 195.1,128.3 194.15,128.3 Z M199.25,131.15 C199.7,130.75 200.575,129.675 200.65,128.4 C199.675,128.35 198.9,127.675 198.9,126.725 C198.9,125.65 199.675,124.95 200.575,124.95 C201.55,124.95 202.475,125.65 202.475,127.15 C202.475,129.075 201.375,130.675 199.975,131.525 L199.25,131.15 Z M214.85,128.3 C212.925,128.3 212.15,127.05 212.15,125.25 L212.15,117.125 L210.075,117.125 L210.075,115.225 L212.15,115.225 L212.15,111 L214.325,109.95 L214.325,115.225 L217.475,115.225 L217.475,117.125 L214.325,117.125 L214.325,124.525 C214.325,125.5 214.525,126.275 215.65,126.275 C216.375,126.275 217,125.95 217.55,125.6 L217.3,127.725 C216.625,128.075 215.85,128.3 214.85,128.3 Z M220.75,128 L220.75,110.95 L222.925,109.95 L222.925,116.55 C223.725,115.45 224.85,114.925 226.225,114.925 C229.125,114.925 230.8,116.525 230.8,120.65 L230.8,128 L228.625,128 L228.625,120.275 C228.625,117.85 227.45,116.925 225.875,116.925 C224.2,116.925 222.925,117.75 222.925,120.225 L222.925,128 L220.75,128 Z M239.75,128.3 C236.25,128.3 234.075,125.5 234.075,121.6 C234.075,117.375 236.35,114.925 239.75,114.925 C242.625,114.925 245.025,116.8 245.025,121 C245.025,121.4 245,121.95 244.95,122.45 L236.3,122.45 C236.475,124.8 237.875,126.325 239.8,126.325 C240.775,126.325 241.75,125.975 242.55,125.175 L243.875,126.65 C242.925,127.6 241.475,128.3 239.75,128.3 Z M236.275,120.6 L242.825,120.6 C242.8,117.7 241.1,116.85 239.75,116.85 C237.9,116.85 236.4,117.975 236.275,120.6 Z M249.8,132.85 L251.75,127.675 L247.025,115.225 L249.2,115.225 L252.375,123.925 C252.55,124.375 252.65,124.725 252.775,125.15 C252.9,124.725 253,124.375 253.175,123.925 L256.4,115.225 L258.625,115.225 L252,132.85 L249.8,132.85 Z M59.225,160 L55.95,147.225 L58.1,147.225 L60.05,155.8 C60.15,156.3 60.25,156.725 60.325,157.15 C60.4,156.725 60.525,156.275 60.65,155.8 L63.05,147.225 L64.85,147.225 L67.25,155.8 L67.6,157.2 C67.675,156.775 67.775,156.325 67.875,155.8 L69.8,147.225 L71.95,147.225 L68.675,160 L66.725,160 L64.4,152.425 C64.25,151.925 64.05,151.25 63.925,150.75 C63.8,151.25 63.625,151.925 63.475,152.425 L61.175,160 L59.225,160 Z M76.05,144.9 C75.3,144.9 74.7,144.3 74.7,143.55 C74.7,142.775 75.3,142.15 76.05,142.15 C76.825,142.15 77.425,142.775 77.425,143.55 C77.425,144.3 76.825,144.9 76.05,144.9 Z M74.975,160 L74.975,147.225 L77.15,147.225 L77.15,160 L74.975,160 Z M81.425,160 L81.425,142.975 L83.6,141.95 L83.6,160 L81.425,160 Z M87.975,160 L87.975,142.975 L90.15,141.95 L90.15,160 L87.975,160 Z M104.825,160.3 C101.575,160.3 99.525,157.85 99.525,153.625 C99.525,149.425 101.575,146.925 104.925,146.925 C107.05,146.925 108.675,147.9 109.4,149.9 L107.35,150.65 C106.975,149.675 106.2,148.95 104.95,148.95 C102.775,148.95 101.75,150.75 101.75,153.625 C101.75,156.525 102.825,158.25 104.875,158.25 C106.15,158.25 107.1,157.55 107.475,156.35 L109.5,157.025 C108.875,159.125 107.175,160.3 104.825,160.3 Z M117.675,160.3 C114.25,160.3 112.025,157.85 112.025,153.625 C112.025,149.425 114.25,146.925 117.675,146.925 C121.1,146.925 123.325,149.375 123.325,153.6 C123.325,157.8 121.1,160.3 117.675,160.3 Z M117.675,158.275 C119.825,158.275 121.125,156.525 121.125,153.6 C121.125,150.7 119.85,148.925 117.675,148.925 C115.5,148.925 114.225,150.65 114.225,153.625 C114.225,156.525 115.5,158.275 117.675,158.275 Z M141.7,160 L141.7,152.25 C141.7,150.5 141.1,148.925 139.125,148.925 C137.475,148.925 136.375,150.3 136.375,152.325 L136.375,160 L134.2,160 L134.2,152.25 C134.2,150.5 133.625,148.925 131.65,148.925 C129.95,148.925 128.9,150.2 128.9,152.225 L128.9,160 L126.725,160 L126.725,147.225 L128.9,147.225 L128.9,148.425 C129.675,147.4 130.9,146.925 132.25,146.925 C133.625,146.925 134.95,147.55 135.675,148.8 C136.425,147.65 137.725,146.925 139.375,146.925 C141.925,146.925 143.875,148.525 143.875,151.625 L143.875,160 L141.7,160 Z M152.8,160.3 C149.3,160.3 147.125,157.5 147.125,153.6 C147.125,149.375 149.4,146.925 152.8,146.925 C155.675,146.925 158.075,148.8 158.075,153 C158.075,153.4 158.05,153.95 158,154.45 L149.35,154.45 C149.525,156.8 150.925,158.325 152.85,158.325 C153.825,158.325 154.8,157.975 155.6,157.175 L156.925,158.65 C155.975,159.6 154.525,160.3 152.8,160.3 Z M149.325,152.6 L155.875,152.6 C155.85,149.7 154.15,148.85 152.8,148.85 C150.95,148.85 149.45,149.975 149.325,152.6 Z M162.05,160.325 C161.075,160.325 160.325,159.525 160.325,158.625 C160.325,157.725 161.075,156.9 162.05,156.9 C163.025,156.9 163.8,157.725 163.8,158.625 C163.8,159.525 163.025,160.325 162.05,160.325 Z M167.425,160.325 C166.45,160.325 165.7,159.525 165.7,158.625 C165.7,157.725 166.45,156.9 167.425,156.9 C168.4,156.9 169.175,157.725 169.175,158.625 C169.175,159.525 168.4,160.325 167.425,160.325 Z M172.8,160.325 C171.825,160.325 171.075,159.525 171.075,158.625 C171.075,157.725 171.825,156.9 172.8,156.9 C173.775,156.9 174.55,157.725 174.55,158.625 C174.55,159.525 173.775,160.325 172.8,160.325 Z" id="Ifyoucodeit,theywillcome..." fill="#637381" fill-rule="nonzero" mask="url(#mask-2)"></path>
                        <g id="Browser-Bubbles" opacity="0.234305246" transform="translate(25.800000, 19.200000)" fill="#151F1E">
                            <circle id="Oval" cx="4" cy="4" r="4"></circle>
                            <circle id="Oval" cx="16.8" cy="4" r="4"></circle>
                            <circle id="Oval-Copy" cx="30.4" cy="4" r="4"></circle>
                        </g>
                    </g>
                    <g id="Webspace-Interface-Window" opacity="0.97" transform="translate(287.000000, 184.000000)">
                        <g id="Rectangle">
                            <use fill="black" fill-opacity="1" filter="url(#filter-13)" xlink:href="#path-12"></use>
                            <use fill="#FFFFFF" fill-rule="evenodd" xlink:href="#path-12"></use>
                        </g>
                        <path d="M19.625,192 C19.655,188.565 20.48,185.73 22.745,182.715 L17.525,182.715 L17.525,181.5 L24.2,181.5 L24.2,182.685 C21.56,185.73 20.975,189.54 20.96,192 L19.625,192 Z M27.185,192 L27.185,183.63 L25.43,183.63 L25.43,182.745 C26.465,182.745 27.23,182.445 27.545,181.5 L28.49,181.5 L28.49,192 L27.185,192 Z M34.79,192.18 C32.84,192.18 31.745,191.16 31.205,189.735 L32.42,189.24 C32.915,190.44 33.725,190.935 34.79,190.935 C36.02,190.935 37.04,190.35 37.04,189.06 C37.04,187.95 36.335,187.155 34.865,187.155 L34.115,187.155 L34.115,185.925 L34.79,185.925 C35.9,185.925 36.635,185.25 36.635,184.26 C36.635,183.195 35.885,182.55 34.835,182.55 C33.68,182.55 33.065,183.285 32.75,183.96 L31.535,183.495 C32,182.295 33.11,181.32 34.835,181.32 C36.665,181.32 38,182.505 38,184.11 C38,185.055 37.52,185.94 36.65,186.39 C37.73,186.825 38.405,187.725 38.405,189.015 C38.405,190.95 36.8,192.18 34.79,192.18 Z M47.165,192.18 C45.11,192.18 43.775,190.71 43.775,188.175 C43.775,185.655 45.11,184.155 47.165,184.155 C49.22,184.155 50.555,185.625 50.555,188.16 C50.555,190.68 49.22,192.18 47.165,192.18 Z M47.165,190.965 C48.455,190.965 49.235,189.915 49.235,188.16 C49.235,186.42 48.47,185.355 47.165,185.355 C45.86,185.355 45.095,186.39 45.095,188.175 C45.095,189.915 45.86,190.965 47.165,190.965 Z M54.335,185.475 L54.335,192 L53.03,192 L53.03,185.475 L51.845,185.475 L51.845,184.335 L53.03,184.335 L53.03,183.06 C53.03,181.725 53.87,181.32 54.695,181.32 C55.28,181.32 55.73,181.47 56.12,181.68 L56.12,182.775 C55.73,182.595 55.4,182.49 55.025,182.49 C54.395,182.49 54.335,182.88 54.335,183.285 L54.335,184.335 L56.12,184.335 L56.12,185.475 L54.335,185.475 Z M60.92,192 C60.92,189.24 62.675,187.875 64.4,186.87 C65.51,186.195 66.545,185.505 66.545,184.32 C66.545,183.315 65.75,182.535 64.49,182.535 C63.2,182.535 62.555,183.15 62.255,184.08 L61.085,183.555 C61.49,182.265 62.795,181.32 64.535,181.32 C66.635,181.32 67.895,182.55 67.895,184.35 C67.895,186.195 66.53,187.065 64.985,187.98 C63.695,188.73 62.675,189.51 62.435,190.725 L67.985,190.725 L67.985,192 L60.92,192 Z M73.58,192.18 C71.21,192.18 70.025,190.41 70.025,188.115 C70.025,184.875 72.08,182.04 75.575,181.32 L75.575,182.475 C73.715,182.91 72.035,184.38 71.6,186.3 C72.05,185.79 72.86,185.445 73.895,185.445 C75.71,185.445 77.075,186.93 77.075,188.745 C77.075,190.74 75.575,192.18 73.58,192.18 Z M73.565,190.95 C74.87,190.95 75.77,190.095 75.77,188.82 C75.77,187.515 74.885,186.66 73.565,186.66 C72.275,186.66 71.345,187.515 71.345,188.82 C71.345,190.095 72.305,190.95 73.565,190.95 Z M79.055,192 C79.055,189.24 80.81,187.875 82.535,186.87 C83.645,186.195 84.68,185.505 84.68,184.32 C84.68,183.315 83.885,182.535 82.625,182.535 C81.335,182.535 80.69,183.15 80.39,184.08 L79.22,183.555 C79.625,182.265 80.93,181.32 82.67,181.32 C84.77,181.32 86.03,182.55 86.03,184.35 C86.03,186.195 84.665,187.065 83.12,187.98 C81.83,188.73 80.81,189.51 80.57,190.725 L86.12,190.725 L86.12,192 L79.055,192 Z M88.865,192.195 C88.28,192.195 87.83,191.715 87.83,191.175 C87.83,190.635 88.28,190.14 88.865,190.14 C89.45,190.14 89.915,190.635 89.915,191.175 C89.915,191.715 89.45,192.195 88.865,192.195 Z M92.915,192 L92.915,183.63 L91.16,183.63 L91.16,182.745 C92.195,182.745 92.96,182.445 93.275,181.5 L94.22,181.5 L94.22,192 L92.915,192 Z M101.6,192 L101.6,189.39 L96.23,189.39 L96.23,188.61 L101.675,181.5 L102.905,181.5 L102.905,188.22 L104.39,188.22 L104.39,189.39 L102.905,189.39 L102.905,192 L101.6,192 Z M101.6,188.22 L101.6,183.345 L97.94,188.22 L101.6,188.22 Z M110.915,192 L110.915,189.39 L105.545,189.39 L105.545,188.61 L110.99,181.5 L112.22,181.5 L112.22,188.22 L113.705,188.22 L113.705,189.39 L112.22,189.39 L112.22,192 L110.915,192 Z M110.915,188.22 L110.915,183.345 L107.255,188.22 L110.915,188.22 Z M123.905,192 L123.905,191.265 C123.395,191.925 122.78,192.18 121.97,192.18 C120.17,192.18 119.18,191.22 119.18,188.76 L119.18,184.335 L120.485,184.335 L120.485,188.955 C120.485,190.41 121.19,190.965 122.135,190.965 C123.14,190.965 123.905,190.485 123.905,188.985 L123.905,184.335 L125.21,184.335 L125.21,192 L123.905,192 Z M129.965,192.18 C128.84,192.18 127.79,191.655 127.19,190.89 L128.12,190.095 C128.51,190.515 129.17,191.01 129.995,191.01 C130.805,191.01 131.42,190.71 131.42,190.035 C131.42,189.27 130.565,188.925 129.665,188.58 C128.255,188.055 127.295,187.44 127.295,186.18 C127.295,184.92 128.405,184.155 129.875,184.155 C131.045,184.155 131.9,184.65 132.455,185.31 L131.555,186.06 C131.225,185.715 130.685,185.325 129.86,185.325 C129.08,185.325 128.585,185.64 128.585,186.18 C128.585,186.825 129.35,187.11 130.205,187.455 C131.6,187.95 132.695,188.55 132.695,190.005 C132.695,191.385 131.63,192.18 129.965,192.18 Z M137.69,192.18 C135.59,192.18 134.285,190.5 134.285,188.16 C134.285,185.625 135.65,184.155 137.69,184.155 C139.415,184.155 140.855,185.28 140.855,187.8 C140.855,188.04 140.84,188.37 140.81,188.67 L135.62,188.67 C135.725,190.08 136.565,190.995 137.72,190.995 C138.305,190.995 138.89,190.785 139.37,190.305 L140.165,191.19 C139.595,191.76 138.725,192.18 137.69,192.18 Z M135.605,187.56 L139.535,187.56 C139.52,185.82 138.5,185.31 137.69,185.31 C136.58,185.31 135.68,185.985 135.605,187.56 Z M145.52,192.18 C143.57,192.18 142.355,190.635 142.355,188.16 C142.355,185.64 143.615,184.155 145.52,184.155 C146.42,184.155 147.02,184.485 147.455,184.875 L147.455,181.785 L148.76,181.17 L148.76,192 L147.455,192 L147.455,191.4 C147.02,191.85 146.435,192.18 145.52,192.18 Z M145.7,190.965 C146.42,190.965 147.065,190.59 147.455,189.93 L147.455,186.33 C147.17,185.88 146.585,185.355 145.7,185.355 C144.41,185.355 143.675,186.36 143.675,188.16 C143.675,189.75 144.44,190.965 145.7,190.965 Z" id="713of262.144used" fill="#637381" fill-rule="nonzero"></path>
                        <path d="M18.275,135.5 L21.515,135.5 C25.19,135.5 26.57,138.14 26.57,140.75 C26.57,143.15 25.31,146 21.455,146 L18.275,146 L18.275,135.5 Z M21.71,144.305 C23.945,144.305 24.71,142.4 24.71,140.75 C24.71,138.98 23.87,137.195 21.875,137.195 L20.075,137.195 L20.075,144.305 L21.71,144.305 Z M32.885,146 L32.885,145.385 C32.51,145.775 31.865,146.18 30.845,146.18 C29.27,146.18 28.07,145.31 28.07,143.63 C28.07,141.86 29.555,141.095 31.07,141.095 C31.79,141.095 32.405,141.23 32.885,141.5 L32.885,141.095 C32.885,140.09 32.39,139.7 31.385,139.7 C30.455,139.7 29.75,139.97 29.105,140.42 L28.565,138.995 C29.255,138.53 30.275,138.155 31.565,138.155 C32.915,138.155 34.595,138.485 34.595,141.065 L34.595,146 L32.885,146 Z M31.175,144.635 C31.925,144.635 32.495,144.305 32.885,143.9 L32.885,142.91 C32.48,142.715 31.925,142.595 31.355,142.595 C30.485,142.595 29.78,142.895 29.78,143.63 C29.78,144.23 30.26,144.635 31.175,144.635 Z M38.945,146.18 C37.685,146.18 37.16,145.43 37.16,144.215 L37.16,139.865 L36.02,139.865 L36.02,138.335 L37.16,138.335 L37.16,136.01 L38.915,135.17 L38.915,138.335 L40.685,138.335 L40.685,139.865 L38.915,139.865 L38.915,143.87 C38.915,144.305 39.095,144.605 39.56,144.605 C39.95,144.605 40.355,144.485 40.76,144.26 L40.55,145.835 C40.115,146.06 39.575,146.18 38.945,146.18 Z M46.73,146 L46.73,145.385 C46.355,145.775 45.71,146.18 44.69,146.18 C43.115,146.18 41.915,145.31 41.915,143.63 C41.915,141.86 43.4,141.095 44.915,141.095 C45.635,141.095 46.25,141.23 46.73,141.5 L46.73,141.095 C46.73,140.09 46.235,139.7 45.23,139.7 C44.3,139.7 43.595,139.97 42.95,140.42 L42.41,138.995 C43.1,138.53 44.12,138.155 45.41,138.155 C46.76,138.155 48.44,138.485 48.44,141.065 L48.44,146 L46.73,146 Z M45.02,144.635 C45.77,144.635 46.34,144.305 46.73,143.9 L46.73,142.91 C46.325,142.715 45.77,142.595 45.2,142.595 C44.33,142.595 43.625,142.895 43.625,143.63 C43.625,144.23 44.105,144.635 45.02,144.635 Z" id="Data" fill="#637381" fill-rule="nonzero"></path>
                        <rect id="Rectangle" fill="#D8D8D8" x="18" y="152" width="154" height="20"></rect>
                        <rect id="Rectangle-Blue" fill="#0B9DCC" x="17" y="152" width="29" height="20"></rect>
                        <path d="M19.895,69 L17.75,58.5 L19.115,58.5 L20.405,65.34 C20.495,65.805 20.555,66.15 20.6,66.465 C20.66,66.15 20.765,65.82 20.885,65.355 L22.745,58.5 L23.78,58.5 L25.655,65.34 C25.775,65.775 25.85,66.075 25.895,66.36 C25.94,66.075 26,65.76 26.09,65.325 L27.515,58.5 L28.85,58.5 L26.57,69 L25.535,69 L23.51,61.83 C23.39,61.395 23.3,61.095 23.24,60.795 C23.18,61.095 23.105,61.395 22.985,61.83 L20.96,69 L19.895,69 Z M33.8,69.18 C31.7,69.18 30.395,67.5 30.395,65.16 C30.395,62.625 31.76,61.155 33.8,61.155 C35.525,61.155 36.965,62.28 36.965,64.8 C36.965,65.04 36.95,65.37 36.92,65.67 L31.73,65.67 C31.835,67.08 32.675,67.995 33.83,67.995 C34.415,67.995 35,67.785 35.48,67.305 L36.275,68.19 C35.705,68.76 34.835,69.18 33.8,69.18 Z M31.715,64.56 L35.645,64.56 C35.63,62.82 34.61,62.31 33.8,62.31 C32.69,62.31 31.79,62.985 31.715,64.56 Z M42.185,69.18 C41.21,69.18 40.67,68.775 40.22,68.34 L40.22,69 L38.915,69 L38.915,58.785 L40.22,58.17 L40.22,61.995 C40.655,61.515 41.345,61.155 42.14,61.155 C44.045,61.155 45.32,62.64 45.32,65.16 C45.32,67.755 44.135,69.18 42.185,69.18 Z M42.005,67.965 C43.325,67.965 43.985,66.885 43.985,65.16 C43.985,63.36 43.31,62.355 42.005,62.355 C41.135,62.355 40.475,62.94 40.22,63.375 L40.22,66.93 C40.595,67.575 41.285,67.965 42.005,67.965 Z M49.61,69.18 C48.485,69.18 47.435,68.655 46.835,67.89 L47.765,67.095 C48.155,67.515 48.815,68.01 49.64,68.01 C50.45,68.01 51.065,67.71 51.065,67.035 C51.065,66.27 50.21,65.925 49.31,65.58 C47.9,65.055 46.94,64.44 46.94,63.18 C46.94,61.92 48.05,61.155 49.52,61.155 C50.69,61.155 51.545,61.65 52.1,62.31 L51.2,63.06 C50.87,62.715 50.33,62.325 49.505,62.325 C48.725,62.325 48.23,62.64 48.23,63.18 C48.23,63.825 48.995,64.11 49.85,64.455 C51.245,64.95 52.34,65.55 52.34,67.005 C52.34,68.385 51.275,69.18 49.61,69.18 Z M57.65,69.18 C56.66,69.18 56.09,68.76 55.685,68.28 L55.685,71.415 L54.38,72.03 L54.38,61.335 L55.685,61.335 L55.685,61.98 C56.135,61.53 56.69,61.155 57.65,61.155 C59.6,61.155 60.815,62.7 60.815,65.16 C60.815,67.71 59.51,69.18 57.65,69.18 Z M57.485,67.965 C58.76,67.965 59.48,66.975 59.48,65.16 C59.48,63.495 58.745,62.355 57.485,62.355 C56.705,62.355 56.06,62.73 55.685,63.39 L55.685,66.93 C56.12,67.5 56.705,67.965 57.485,67.965 Z M67.235,69 L67.235,68.295 C66.725,68.775 65.975,69.18 65.06,69.18 C63.5,69.18 62.39,68.31 62.39,66.6 C62.39,64.83 63.77,64.065 65.255,64.065 C65.93,64.065 66.605,64.2 67.235,64.56 L67.235,64.02 C67.235,62.67 66.56,62.295 65.57,62.295 C64.715,62.295 63.905,62.655 63.335,63.06 L62.96,61.965 C63.575,61.56 64.58,61.155 65.735,61.155 C66.935,61.155 68.465,61.56 68.465,63.915 L68.465,69 L67.235,69 Z M65.255,68.025 C66.11,68.025 66.8,67.53 67.235,67.02 L67.235,65.7 C66.77,65.415 66.065,65.19 65.435,65.19 C64.445,65.19 63.62,65.625 63.62,66.6 C63.62,67.455 64.205,68.025 65.255,68.025 Z M73.46,69.18 C71.51,69.18 70.28,67.71 70.28,65.175 C70.28,62.655 71.51,61.155 73.52,61.155 C74.795,61.155 75.77,61.74 76.205,62.94 L74.975,63.39 C74.75,62.805 74.285,62.37 73.535,62.37 C72.23,62.37 71.615,63.45 71.615,65.175 C71.615,66.915 72.26,67.95 73.49,67.95 C74.255,67.95 74.825,67.53 75.05,66.81 L76.265,67.215 C75.89,68.475 74.87,69.18 73.46,69.18 Z M81.185,69.18 C79.085,69.18 77.78,67.5 77.78,65.16 C77.78,62.625 79.145,61.155 81.185,61.155 C82.91,61.155 84.35,62.28 84.35,64.8 C84.35,65.04 84.335,65.37 84.305,65.67 L79.115,65.67 C79.22,67.08 80.06,67.995 81.215,67.995 C81.8,67.995 82.385,67.785 82.865,67.305 L83.66,68.19 C83.09,68.76 82.22,69.18 81.185,69.18 Z M79.1,64.56 L83.03,64.56 C83.015,62.82 81.995,62.31 81.185,62.31 C80.075,62.31 79.175,62.985 79.1,64.56 Z M21.365,88.18 C19.67,88.18 18.515,87.565 18.005,87.025 L18.785,86.02 C19.37,86.53 20.06,86.98 21.35,86.98 C22.85,86.98 23.915,85.945 23.915,84.625 C23.915,83.305 23.06,82.405 21.77,82.405 C20.78,82.405 20.06,82.81 19.655,83.26 L18.365,82.81 L18.98,77.5 L24.59,77.5 L24.59,78.715 L20.12,78.715 L19.715,81.88 C20.255,81.445 21.065,81.16 21.92,81.16 C23.975,81.16 25.28,82.675 25.28,84.535 C25.28,86.53 23.75,88.18 21.365,88.18 Z M30.845,88.18 C28.475,88.18 27.29,86.41 27.29,84.115 C27.29,80.875 29.345,78.04 32.84,77.32 L32.84,78.475 C30.98,78.91 29.3,80.38 28.865,82.3 C29.315,81.79 30.125,81.445 31.16,81.445 C32.975,81.445 34.34,82.93 34.34,84.745 C34.34,86.74 32.84,88.18 30.845,88.18 Z M30.83,86.95 C32.135,86.95 33.035,86.095 33.035,84.82 C33.035,83.515 32.15,82.66 30.83,82.66 C29.54,82.66 28.61,83.515 28.61,84.82 C28.61,86.095 29.57,86.95 30.83,86.95 Z M49.385,88 L48.08,88 L48.08,81.55 C48.08,81.19 48.095,80.665 48.11,80.395 C47.99,80.74 47.795,81.22 47.645,81.58 L44.765,88.18 L41.975,81.55 C41.84,81.22 41.645,80.755 41.525,80.41 C41.555,80.68 41.57,81.19 41.57,81.55 L41.57,88 L40.265,88 L40.265,77.5 L41.495,77.5 L44.54,84.565 L44.81,85.27 C44.885,85.045 44.99,84.79 45.08,84.565 L48.14,77.5 L49.385,77.5 L49.385,88 Z M52.31,77.5 L56.03,77.5 C58.52,77.5 59.3,78.88 59.3,80.275 C59.3,81.235 58.73,82.045 57.755,82.465 C58.97,82.84 59.675,83.785 59.675,84.985 C59.675,86.41 58.835,88 56.27,88 L52.31,88 L52.31,77.5 Z M55.775,81.955 C57.26,81.955 58.01,81.295 58.01,80.29 C58.01,79.525 57.68,78.685 56.105,78.685 L53.615,78.685 L53.615,81.955 L55.775,81.955 Z M56.42,86.8 C57.965,86.8 58.385,85.915 58.385,85.075 C58.385,84.07 57.905,83.14 55.94,83.14 L53.615,83.14 L53.615,86.8 L56.42,86.8 Z M68.39,88.18 C66.335,88.18 65,86.71 65,84.175 C65,81.655 66.335,80.155 68.39,80.155 C70.445,80.155 71.78,81.625 71.78,84.16 C71.78,86.68 70.445,88.18 68.39,88.18 Z M68.39,86.965 C69.68,86.965 70.46,85.915 70.46,84.16 C70.46,82.42 69.695,81.355 68.39,81.355 C67.085,81.355 66.32,82.39 66.32,84.175 C66.32,85.915 67.085,86.965 68.39,86.965 Z M75.56,81.475 L75.56,88 L74.255,88 L74.255,81.475 L73.07,81.475 L73.07,80.335 L74.255,80.335 L74.255,79.06 C74.255,77.725 75.095,77.32 75.92,77.32 C76.505,77.32 76.955,77.47 77.345,77.68 L77.345,78.775 C76.955,78.595 76.625,78.49 76.25,78.49 C75.62,78.49 75.56,78.88 75.56,79.285 L75.56,80.335 L77.345,80.335 L77.345,81.475 L75.56,81.475 Z M83.105,88 L83.105,80.44 L81.56,80.44 L81.56,78.58 C82.565,78.58 83.255,78.325 83.525,77.5 L85.385,77.5 L85.385,88 L83.105,88 Z M92.345,88.18 C89.255,88.18 88.4,85.315 88.4,82.75 C88.4,80.05 89.3,77.32 92.345,77.32 C95.42,77.32 96.275,80.095 96.275,82.75 C96.275,85.42 95.375,88.18 92.345,88.18 Z M92.345,86.02 C93.605,86.02 94.025,84.46 94.025,82.75 C94.025,81.1 93.62,79.48 92.345,79.48 C91.085,79.48 90.65,81.04 90.65,82.75 C90.65,84.385 91.055,86.02 92.345,86.02 Z M102.35,88.18 C99.26,88.18 98.405,85.315 98.405,82.75 C98.405,80.05 99.305,77.32 102.35,77.32 C105.425,77.32 106.28,80.095 106.28,82.75 C106.28,85.42 105.38,88.18 102.35,88.18 Z M102.35,86.02 C103.61,86.02 104.03,84.46 104.03,82.75 C104.03,81.1 103.625,79.48 102.35,79.48 C101.09,79.48 100.655,81.04 100.655,82.75 C100.655,84.385 101.06,86.02 102.35,86.02 Z M116.6,88.18 C113.36,88.18 111.965,85.495 111.965,82.75 C111.965,80.215 113.42,77.32 116.6,77.32 C118.655,77.32 119.705,78.49 120.47,79.72 L118.475,80.845 C118.025,80.125 117.425,79.51 116.6,79.51 C114.86,79.51 114.335,81.325 114.335,82.75 C114.335,84.385 114.965,85.99 116.6,85.99 C117.455,85.99 118.205,85.345 118.205,84.595 L118.205,84.52 L116.495,84.52 L116.495,82.345 L120.545,82.345 L120.545,83.995 C120.545,86.695 118.835,88.18 116.6,88.18 Z M122.285,77.5 L127.235,77.5 C129.83,77.5 130.7,78.925 130.7,80.35 C130.7,81.265 130.4,82.105 129.515,82.525 C130.625,82.945 131.045,84.01 131.045,84.85 C131.045,86.38 130.1,88 127.43,88 L122.285,88 L122.285,77.5 Z M127.01,81.595 C127.955,81.595 128.375,81.205 128.375,80.605 C128.375,80.14 128.21,79.63 127.25,79.63 L124.565,79.63 L124.565,81.595 L127.01,81.595 Z M127.535,85.855 C128.45,85.855 128.735,85.27 128.735,84.805 C128.735,84.25 128.465,83.65 127.13,83.65 L124.565,83.65 L124.565,85.855 L127.535,85.855 Z M141.2,88 L141.2,87.265 C140.69,87.925 140.075,88.18 139.265,88.18 C137.465,88.18 136.475,87.22 136.475,84.76 L136.475,80.335 L137.78,80.335 L137.78,84.955 C137.78,86.41 138.485,86.965 139.43,86.965 C140.435,86.965 141.2,86.485 141.2,84.985 L141.2,80.335 L142.505,80.335 L142.505,88 L141.2,88 Z M147.26,88.18 C146.135,88.18 145.085,87.655 144.485,86.89 L145.415,86.095 C145.805,86.515 146.465,87.01 147.29,87.01 C148.1,87.01 148.715,86.71 148.715,86.035 C148.715,85.27 147.86,84.925 146.96,84.58 C145.55,84.055 144.59,83.44 144.59,82.18 C144.59,80.92 145.7,80.155 147.17,80.155 C148.34,80.155 149.195,80.65 149.75,81.31 L148.85,82.06 C148.52,81.715 147.98,81.325 147.155,81.325 C146.375,81.325 145.88,81.64 145.88,82.18 C145.88,82.825 146.645,83.11 147.5,83.455 C148.895,83.95 149.99,84.55 149.99,86.005 C149.99,87.385 148.925,88.18 147.26,88.18 Z M154.985,88.18 C152.885,88.18 151.58,86.5 151.58,84.16 C151.58,81.625 152.945,80.155 154.985,80.155 C156.71,80.155 158.15,81.28 158.15,83.8 C158.15,84.04 158.135,84.37 158.105,84.67 L152.915,84.67 C153.02,86.08 153.86,86.995 155.015,86.995 C155.6,86.995 156.185,86.785 156.665,86.305 L157.46,87.19 C156.89,87.76 156.02,88.18 154.985,88.18 Z M152.9,83.56 L156.83,83.56 C156.815,81.82 155.795,81.31 154.985,81.31 C153.875,81.31 152.975,81.985 152.9,83.56 Z M162.815,88.18 C160.865,88.18 159.65,86.635 159.65,84.16 C159.65,81.64 160.91,80.155 162.815,80.155 C163.715,80.155 164.315,80.485 164.75,80.875 L164.75,77.785 L166.055,77.17 L166.055,88 L164.75,88 L164.75,87.4 C164.315,87.85 163.73,88.18 162.815,88.18 Z M162.995,86.965 C163.715,86.965 164.36,86.59 164.75,85.93 L164.75,82.33 C164.465,81.88 163.88,81.355 162.995,81.355 C161.705,81.355 160.97,82.36 160.97,84.16 C160.97,85.75 161.735,86.965 162.995,86.965 Z" id="Webspace56MBof100GBused" fill="#637381" fill-rule="nonzero"></path>
                        <path d="M20.61,35 L17.76,21.7 L20.097,21.7 L21.674,29.528 C21.788,30.136 21.864,30.497 21.902,30.801 C21.94,30.497 22.016,30.136 22.168,29.528 L24.125,21.7 L26.063,21.7 L28.058,29.509 C28.229,30.117 28.286,30.478 28.324,30.782 C28.362,30.478 28.419,30.117 28.552,29.528 L30.129,21.7 L32.428,21.7 L29.559,35 L27.469,35 L25.322,26.773 C25.17,26.241 25.094,25.88 25.056,25.538 C25.018,25.88 24.942,26.241 24.809,26.754 L22.7,35 L20.61,35 Z M38.185,35.228 C35.43,35.228 33.701,33.328 33.701,30.136 C33.701,26.963 35.468,25.063 38.185,25.063 C40.522,25.063 42.422,26.507 42.422,29.623 C42.422,30.022 42.403,30.554 42.346,30.991 L35.905,30.991 C35.981,32.416 37.026,33.271 38.185,33.271 C39.04,33.271 39.724,32.948 40.237,32.264 L41.643,33.708 C40.883,34.62 39.743,35.228 38.185,35.228 Z M35.924,29.148 L40.218,29.148 C40.123,27.666 39.192,27.02 38.185,27.02 C36.988,27.02 36.038,27.628 35.924,29.148 Z M49.072,35.228 C48.046,35.228 47.4,34.848 46.925,34.259 L46.925,35 L44.702,35 L44.702,22.289 L46.925,21.282 L46.925,26.013 C47.4,25.462 48.103,25.063 49.11,25.063 C51.466,25.063 53.138,26.963 53.138,30.136 C53.138,33.423 51.58,35.228 49.072,35.228 Z M48.806,33.1 C50.193,33.1 50.915,31.96 50.915,30.136 C50.915,28.217 50.155,27.172 48.806,27.172 C47.875,27.172 47.21,27.685 46.925,28.122 L46.925,32.169 C47.324,32.777 47.951,33.1 48.806,33.1 Z M58.572,35.228 C57.014,35.228 55.513,34.582 54.791,33.556 L56.311,32.264 C56.71,32.663 57.508,33.29 58.572,33.29 C59.484,33.29 60.149,33.043 60.149,32.34 C60.149,31.656 59.37,31.352 58.268,30.915 C56.159,30.212 55.057,29.395 55.057,27.761 C55.057,26.013 56.596,25.063 58.515,25.063 C60.187,25.063 61.327,25.785 61.992,26.564 L60.453,27.818 C59.978,27.362 59.408,27.001 58.515,27.001 C57.717,27.001 57.204,27.286 57.204,27.799 C57.204,28.388 58.078,28.73 59.104,29.072 C60.985,29.699 62.296,30.497 62.296,32.34 C62.296,34.221 60.814,35.228 58.572,35.228 Z M69.098,35.228 C68.053,35.228 67.35,34.791 66.894,34.221 L66.894,37.793 L64.671,38.819 L64.671,25.291 L66.894,25.291 L66.894,26.032 C67.369,25.462 68.072,25.063 69.117,25.063 C71.53,25.063 73.107,26.906 73.107,30.155 C73.107,33.347 71.454,35.228 69.098,35.228 Z M68.775,33.1 C70.124,33.1 70.884,32.055 70.884,30.155 C70.884,28.388 70.143,27.172 68.775,27.172 C67.901,27.172 67.293,27.533 66.894,28.122 L66.894,32.15 C67.236,32.644 67.882,33.1 68.775,33.1 Z M81.011,35 L81.011,34.221 C80.536,34.715 79.719,35.228 78.427,35.228 C76.432,35.228 74.912,34.126 74.912,31.998 C74.912,29.756 76.793,28.787 78.712,28.787 C79.624,28.787 80.403,28.958 81.011,29.3 L81.011,28.787 C81.011,27.514 80.384,27.02 79.111,27.02 C77.933,27.02 77.04,27.362 76.223,27.932 L75.539,26.127 C76.413,25.538 77.705,25.063 79.339,25.063 C81.049,25.063 83.177,25.481 83.177,28.749 L83.177,35 L81.011,35 Z M78.845,33.271 C79.795,33.271 80.517,32.853 81.011,32.34 L81.011,31.086 C80.498,30.839 79.795,30.687 79.073,30.687 C77.971,30.687 77.078,31.067 77.078,31.998 C77.078,32.758 77.686,33.271 78.845,33.271 Z M89.694,35.228 C87.053,35.228 85.362,33.347 85.362,30.155 C85.362,26.982 87.053,25.063 89.694,25.063 C91.575,25.063 92.962,25.88 93.551,27.742 L91.442,28.445 C91.157,27.704 90.568,27.191 89.77,27.191 C88.421,27.191 87.623,28.35 87.623,30.155 C87.623,31.96 88.421,33.081 89.694,33.081 C90.568,33.081 91.195,32.587 91.461,31.675 L93.589,32.321 C93.038,34.24 91.708,35.228 89.694,35.228 Z M99.916,35.228 C97.161,35.228 95.432,33.328 95.432,30.136 C95.432,26.963 97.199,25.063 99.916,25.063 C102.253,25.063 104.153,26.507 104.153,29.623 C104.153,30.022 104.134,30.554 104.077,30.991 L97.636,30.991 C97.712,32.416 98.757,33.271 99.916,33.271 C100.771,33.271 101.455,32.948 101.968,32.264 L103.374,33.708 C102.614,34.62 101.474,35.228 99.916,35.228 Z M97.655,29.148 L101.949,29.148 C101.854,27.666 100.923,27.02 99.916,27.02 C98.719,27.02 97.769,27.628 97.655,29.148 Z" id="Webspace" fill="#000000" fill-rule="nonzero"></path>
                    </g>
                    <g id="Hand-Cursor" filter="url(#filter-14)" transform="translate(276.000000, 258.000000)" fill-rule="nonzero">
                        <g id="XMLID_134_" transform="translate(0.000000, -0.000000)">
                            <g id="XMLID_139_">
                                <path d="M8.7277533,29.6335616 L8.7277533,33.15 L21.9911894,33.15 L21.9911894,29.6335616 C21.9911894,29.6335616 25.0035242,26.3150685 25.0035242,23.5787671 C25.0035242,20.8424658 25.5762115,14.3335616 23.9726872,12.7034247 C22.369163,11.0732877 20.3189427,11.5273973 20.3189427,11.5273973 C20.3189427,11.5273973 20.2502203,9.44315068 18.0740088,9.44315068 C16.4246696,9.44315068 16.4246696,9.44315068 16.4246696,9.44315068 C16.4246696,9.44315068 16.3444934,7.8130137 12.3700441,7.8130137 L12.3700441,3.64452055 C12.3700441,2.09589041 11.1330396,0.838356164 9.60969163,0.838356164 L9.60969163,0.838356164 C8.08634361,0.838356164 6.84933921,2.09589041 6.84933921,3.64452055 L6.84933921,17 C6.84933921,17 2.97797357,13.390411 1.39735683,14.8458904 C-0.904845815,17 4.28370044,20.9006849 5.11982379,23.6369863 C5.96740088,26.3849315 8.7277533,29.6335616 8.7277533,29.6335616 Z" id="XMLID_193_" fill="#FFFFFF"></path>
                                <path d="M22.7700441,33.9534247 L7.94889868,33.9534247 L7.94889868,29.9246575 C7.29603524,29.1212329 5.14273128,26.3383562 4.39823789,23.8815068 C4.13480176,23.0315068 3.29867841,21.9253425 2.48546256,20.8541096 C0.881938326,18.7465753 -1.09955947,16.1383562 0.904845815,14.2636986 C1.84405286,13.390411 3.26431718,13.5417808 5.14273128,14.6945205 C5.48634361,14.9041096 5.80704846,15.1253425 6.09339207,15.3465753 L6.09339207,3.64452055 C6.09339207,1.66506849 7.67400881,0.0465753425 9.63259912,0.0465753425 C11.5911894,0.0465753425 13.1718062,1.65342466 13.1718062,3.64452055 L13.1718062,7.04452055 C15.6114537,7.18424658 16.585022,8.0109589 16.9744493,8.65136986 L18.0969163,8.65136986 C19.769163,8.65136986 20.6511013,9.6760274 20.9718062,10.6773973 C21.8537445,10.6773973 23.30837,10.8869863 24.5453744,12.1445205 C25.9770925,13.6 25.9770925,17.3609589 25.8396476,21.7623288 C25.8167401,22.4726027 25.7938326,23.089726 25.7938326,23.590411 C25.7938326,26.1869863 23.49163,29.0979452 22.7814978,29.9479452 L22.7814978,33.9534247 L22.7700441,33.9534247 Z M9.50660793,32.369863 L21.2123348,32.369863 L21.2123348,29.3308219 L21.4185022,29.0979452 C22.1973568,28.2363014 24.2246696,25.5582192 24.2246696,23.5787671 C24.2246696,23.0664384 24.2475771,22.4376712 24.2704846,21.7041096 C24.3506608,19.1308219 24.4995595,14.3452055 23.4343612,13.2623288 C22.1629956,11.969863 20.5594714,12.2958904 20.4907489,12.3075342 L19.5859031,12.4938356 L19.5515419,11.5623288 C19.5400881,11.259589 19.3797357,10.2465753 18.0854626,10.2465753 L15.69163,10.2465753 L15.6572687,9.54794521 C15.5656388,9.26849315 14.8211454,8.61643836 12.3814978,8.61643836 L11.6026432,8.61643836 L11.6026432,3.65616438 C11.6026432,2.55 10.7207048,1.64178082 9.62114537,1.64178082 C8.53303965,1.64178082 7.63964758,2.53835616 7.63964758,3.65616438 L7.63964758,18.8047945 L6.34537445,17.5821918 C4.97092511,16.3013699 2.62290749,14.8109589 1.94713656,15.4280822 C1.06519824,16.2547945 2.07312775,17.7219178 3.71101322,19.8760274 C4.65022026,21.110274 5.54361233,22.2746575 5.87577093,23.4041096 C6.65462555,25.9541096 9.28898678,29.0863014 9.31189427,29.1212329 L9.49515419,29.3424658 L9.49515419,32.369863 L9.50660793,32.369863 Z" id="XMLID_198_" fill="#000000"></path>
                            </g>
                            <g id="XMLID_138_" transform="translate(11.568282, 7.801370)" fill="#000000">
                                <rect id="XMLID_197_" x="0.0343612335" y="0.0116438356" width="1.55770925" height="6.77671233"></rect>
                            </g>
                            <g id="XMLID_136_" transform="translate(19.471366, 11.527397)" fill="#000000">
                                <rect id="XMLID_196_" x="0.0801762115" y="0" width="1.55770925" height="4.09863014"></rect>
                            </g>
                            <g id="XMLID_135_" transform="translate(6.070485, 17.000000)" fill="#000000">
                                <rect id="XMLID_195_" x="0.022907489" y="0" width="1.55770925" height="2.21232877"></rect>
                            </g>
                        </g>
                        <g id="XMLID_140_" transform="translate(16.000000, 10.000000)" fill="#000000">
                            <rect id="XMLID_194_" x="0.0933333333" y="0.0111111111" width="1.81333333" height="4.91111111"></rect>
                        </g>
                    </g>
                </g>
            </g>
        </g>
    </g>
</svg>